<?xml version="1.0" encoding="iso-8859-1"?>
<!-- Generator: Adobe Illustrator 19.0.0, SVG Export Plug-In . SVG Version: 6.00 Build 0)  -->
<svg version="1.1" id="Layer_1" xmlns="http://www.w3.org/2000/svg" xmlns:xlink="http://www.w3.org/1999/xlink" x="0px" y="0px"
	 viewBox="0 0 512 512" style="enable-background:new 0 0 512 512;" xml:space="preserve">
<path style="fill:#FFFFFF;" d="M26,487.72c-13.232,0-24-10.768-24-24v-308h508v308c0,13.232-10.768,24-24,24H26z"/>
<path style="fill:#AAC1CE;" d="M4,157.72h504v306c0,12.128-9.872,22-22,22H26c-12.128,0-22-9.872-22-22V157.72 M0,153.72v310
	c0,14.32,11.68,26,26,26h460c14.32,0,26-11.68,26-26v-310H0L0,153.72z"/>
<path style="fill:#E04F5F;" d="M0,160.52V79.24c0-14.32,11.68-26.08,26-26.08h459.92c14.32,0,26,11.68,26,26v81.28H0V160.52z"/>
<rect x="79.76" y="22.28" width="22.72" height="79.44"/>
<rect x="407.36" y="22.28" width="22.72" height="79.44"/>
<g>
	<rect x="71.144" y="161.256" style="fill:#AAC1CE;" width="4" height="326.656"/>
	<rect x="144.32" y="161.256" style="fill:#AAC1CE;" width="4" height="326.656"/>
	<rect x="217.44" y="161.256" style="fill:#AAC1CE;" width="4" height="326.656"/>
	<rect x="290.56" y="161.256" style="fill:#AAC1CE;" width="4" height="326.656"/>
	<rect y="213.36" style="fill:#AAC1CE;" width="507.6" height="4"/>
	<rect y="267.488" style="fill:#AAC1CE;" width="507.6" height="4"/>
	<rect y="321.656" style="fill:#AAC1CE;" width="507.6" height="4"/>
	<rect y="375.76" style="fill:#AAC1CE;" width="507.6" height="4"/>
	<rect y="429.888" style="fill:#AAC1CE;" width="507.6" height="4"/>
	<rect x="363.68" y="161.256" style="fill:#AAC1CE;" width="4" height="326.656"/>
	<rect x="436.856" y="161.256" style="fill:#AAC1CE;" width="4" height="326.656"/>
</g>
<circle cx="256" cy="323.728" r="109.688"/>
<polygon style="fill:#E04F5F;" points="246.888,368.72 199.72,329.296 214.568,311.528 244.368,336.432 294.856,278.736 
	312.28,293.992 "/>
<g>
</g>
<g>
</g>
<g>
</g>
<g>
</g>
<g>
</g>
<g>
</g>
<g>
</g>
<g>
</g>
<g>
</g>
<g>
</g>
<g>
</g>
<g>
</g>
<g>
</g>
<g>
</g>
<g>
</g>
</svg>
